# xmcd
# 
# Track frame offsets:
#     150
#     15225
#     29925
#     48450
#     70350
#     100575
#     113260
#     132375
# 
# Disc length: 2118
# 
# Revision: 0
# Processed by: cddbd v1.5.2PL0 Copyright (c) Steve Scherf et al.
# Submitted via: fre:ac v1.0.17
# 
DISCID=63084408
DTITLE=Fito Páez - Fito Páez
DYEAR=2002
DGENRE=Rock
TTITLE0=Un Vestido Y Un Amor
TTITLE1=Vale
TTITLE2=Rey Sol
TTITLE3=Es Sólo Una Cuestión De Actitud
TTITLE4=Abre
TTITLE5=El Chico De La Tapa
TTITLE6=Tema De Piluso
TTITLE7=Ahí Voy
EXTD=
EXTT0=
EXTT1=
EXTT2=
EXTT3=
EXTT4=
EXTT5=
EXTT6=
EXTT7=
PLAYORDER=
